<svg width="17" height="16" viewBox="0 0 17 16" fill="none" xmlns="http://www.w3.org/2000/svg">
<path d="M1.35102 1.01018C1.14385 1.01018 0.975464 0.841973 0.975464 0.634975C0.975464 0.427991 1.14383 0.259766 1.35102 0.259766H3.77472C3.9416 0.259766 4.08304 0.368104 4.13167 0.518754L5.25247 3.44055H16.6245C16.8317 3.44055 17 3.60876 17 3.81576C17 3.86092 16.9922 3.90449 16.9774 3.94428L14.9946 10.5417C14.946 10.7041 14.7968 10.8095 14.6352 10.8095V10.8099H7.44168C7.2974 10.8099 7.16624 10.8688 7.07103 10.9639C6.97582 11.059 6.91693 11.19 6.91693 11.3342V11.3444C6.91693 11.4891 6.97583 11.6205 7.07057 11.7152L7.0716 11.7141C7.1668 11.8093 7.29796 11.8681 7.44225 11.8681H13.9634C14.1711 11.8681 14.339 12.0363 14.339 12.2433C14.339 12.4503 14.1706 12.6185 13.9634 12.6185H7.44225C7.0908 12.6185 6.77164 12.4753 6.54038 12.2448L6.5414 12.2438L6.54038 12.2427C6.30968 12.0123 6.16631 11.6939 6.16631 11.3438V11.3335C6.16631 10.9824 6.30967 10.6635 6.54038 10.433C6.77107 10.2025 7.09022 10.0593 7.44225 10.0593H14.357L16.121 4.19059H5.54145L7.35058 8.90757C7.42421 9.10087 7.32707 9.31767 7.13313 9.39121C6.93965 9.46476 6.72265 9.36771 6.64904 9.17396L4.6519 3.96651C4.64699 3.95522 4.64254 3.94393 4.63866 3.93219L3.51785 1.0101H1.35236L1.35102 1.01018ZM12.9571 13.4629C13.4167 13.4629 13.7897 13.8351 13.7897 14.2942C13.7897 14.7538 13.4171 15.126 12.9571 15.126C12.4975 15.126 12.1249 14.7538 12.1249 14.2942C12.1249 13.8351 12.4975 13.4629 12.9571 13.4629ZM7.90872 13.4629C8.36829 13.4629 8.74087 13.8351 8.74087 14.2942C8.74087 14.7538 8.36829 15.126 7.90872 15.126C7.44871 15.126 7.07613 14.7538 7.07613 14.2942C7.07613 13.8351 7.44871 13.4629 7.90872 13.4629Z" fill="white"/>
</svg>
