<svg width="17" height="15" viewBox="0 0 17 15" fill="none" xmlns="http://www.w3.org/2000/svg">
<path fill-rule="evenodd" clip-rule="evenodd" d="M8.50018 3.5234C8.91509 2.80689 9.35439 2.24019 9.87945 1.82247C10.589 1.25827 11.4296 0.976196 12.5397 0.976196C13.7709 0.976196 14.886 1.47338 15.693 2.2762C16.5008 3.07889 17 4.18887 17 5.41268C17 8.31891 15.1057 9.75381 12.5901 11.6587C11.4195 12.5452 10.1084 13.5379 8.79802 14.8413C8.63389 15.0037 8.3672 15.0037 8.20306 14.8413C6.89282 13.5381 5.58157 12.5444 4.41171 11.6579C1.89449 9.75348 0 8.31794 0 5.41257C0 4.1888 0.499851 3.07878 1.30699 2.2761C2.11399 1.47341 3.22911 0.976232 4.46032 0.976232C5.57036 0.976232 6.41104 1.25832 7.12055 1.8225C7.64565 2.24108 8.0849 2.80764 8.49982 3.52344L8.50018 3.5234ZM10.403 2.47365C9.82564 2.9323 9.35439 3.64222 8.87549 4.59471C8.8359 4.67263 8.77279 4.73863 8.68783 4.78053C8.48172 4.88353 8.22924 4.79973 8.12569 4.59471C7.64683 3.64125 7.17472 2.9323 6.59905 2.47365C6.04535 2.03337 5.36953 1.81321 4.46068 1.81321C3.46181 1.81321 2.55617 2.21665 1.90231 2.86784C1.24762 3.51917 0.842014 4.41896 0.842014 5.41253C0.842014 7.90622 2.59407 9.23277 4.92118 10.9942C6.02786 11.8329 7.25904 12.7655 8.50039 13.9583C9.74174 12.7655 10.973 11.833 12.0805 10.995C14.4065 9.23299 16.1586 7.90536 16.1586 5.41264C16.1586 4.41911 15.7538 3.51917 15.0983 2.86795C14.4444 2.21676 13.5388 1.81332 12.5399 1.81332C11.6299 1.81332 10.9549 2.03347 10.4029 2.47376L10.403 2.47365Z" fill="white"/>
</svg>
