<svg width="15" height="16" viewBox="0 0 15 16" fill="none" xmlns="http://www.w3.org/2000/svg">
<path d="M7.15834 1.17134C7.15834 1.34577 7.03134 1.48846 6.85674 1.5044C3.36487 1.64709 0.634857 4.50143 0.634857 7.99003C0.634857 10.0198 1.57129 11.9068 3.17446 13.1437V10.6857C3.17446 10.5113 3.31728 10.3686 3.49187 10.3686C3.66647 10.3686 3.80929 10.5113 3.80929 10.6857V13.8572C3.80929 14.0316 3.66646 14.1743 3.49187 14.1743H0.317443C0.142844 14.1743 2.83275e-05 14.0316 2.83275e-05 13.8572C2.83275e-05 13.6828 0.142852 13.5401 0.317443 13.5401H2.65065C0.984045 12.1922 0 10.1466 0 7.99003C0 4.15257 2.99983 1.02868 6.82502 0.854248C6.99962 0.854248 7.14244 0.996938 7.15828 1.17137L7.15834 1.17134ZM11.6343 2.43995H13.9675C14.1421 2.43995 14.2849 2.29726 14.2849 2.12283C14.2849 1.9484 14.1421 1.80571 13.9675 1.80571H10.7931C10.6185 1.80571 10.4756 1.9484 10.4756 2.12283V5.29429C10.4756 5.46873 10.6185 5.61141 10.7931 5.61141C10.9677 5.61141 11.1105 5.46872 11.1105 5.29429V2.83638C12.7135 4.07325 13.6501 5.96027 13.6501 7.99C13.6501 11.4628 10.9359 14.3171 7.45993 14.4915C7.28534 14.5073 7.14252 14.6501 7.15834 14.8246C7.17417 14.999 7.30116 15.1259 7.47575 15.1259H7.49158C11.3009 14.9355 14.2849 11.8117 14.2849 7.99009C14.2849 5.8335 13.3008 3.7879 11.6342 2.44003L11.6343 2.43995Z" fill="white"/>
</svg>
