<svg width="85" height="13" viewBox="0 0 85 13" fill="none" xmlns="http://www.w3.org/2000/svg">
<path fill-rule="evenodd" clip-rule="evenodd" d="M4.40593 4.4477C4.53687 4.43393 4.64692 4.35412 4.70058 4.23374L6.50009 0.189697L8.2996 4.23347C8.35295 4.35385 8.46301 4.43366 8.59425 4.44743L13 4.90757L9.70651 7.86709C9.60847 7.95503 9.56649 8.08428 9.59374 8.21333L10.5171 12.5415L6.68205 10.3266C6.56792 10.2607 6.43187 10.2609 6.31774 10.3266L2.48269 12.5415L3.40605 8.21333C3.43351 8.08439 3.39143 7.95493 3.29349 7.8672L0 4.90767L4.40593 4.4477Z" fill="#F5CC26"/>
<path fill-rule="evenodd" clip-rule="evenodd" d="M22.4059 4.4477C22.5369 4.43393 22.6469 4.35412 22.7006 4.23374L24.5001 0.189697L26.2996 4.23347C26.353 4.35385 26.463 4.43366 26.5943 4.44743L31 4.90757L27.7065 7.86709C27.6085 7.95503 27.5665 8.08428 27.5937 8.21333L28.5171 12.5415L24.6821 10.3266C24.5679 10.2607 24.4319 10.2609 24.3177 10.3266L20.4827 12.5415L21.406 8.21333C21.4335 8.08439 21.3914 7.95493 21.2935 7.8672L18 4.90767L22.4059 4.4477Z" fill="#F5CC26"/>
<path fill-rule="evenodd" clip-rule="evenodd" d="M40.4059 4.4477C40.5369 4.43393 40.6469 4.35412 40.7006 4.23374L42.5001 0.189697L44.2996 4.23347C44.353 4.35385 44.463 4.43366 44.5943 4.44743L49 4.90757L45.7065 7.86709C45.6085 7.95503 45.5665 8.08428 45.5937 8.21333L46.5171 12.5415L42.6821 10.3266C42.5679 10.2607 42.4319 10.2609 42.3177 10.3266L38.4827 12.5415L39.406 8.21333C39.4335 8.08439 39.3914 7.95493 39.2935 7.8672L36 4.90767L40.4059 4.4477Z" fill="#F5CC26"/>
<path fill-rule="evenodd" clip-rule="evenodd" d="M58.4059 4.4477C58.5369 4.43393 58.6469 4.35412 58.7006 4.23374L60.5001 0.189697L62.2996 4.23347C62.353 4.35385 62.463 4.43366 62.5943 4.44743L67 4.90757L63.7065 7.86709C63.6085 7.95503 63.5665 8.08428 63.5937 8.21333L64.5171 12.5415L60.6821 10.3266C60.5679 10.2607 60.4319 10.2609 60.3177 10.3266L56.4827 12.5415L57.406 8.21333C57.4335 8.08439 57.3914 7.95493 57.2935 7.8672L54 4.90767L58.4059 4.4477Z" fill="#F5CC26"/>
<path fill-rule="evenodd" clip-rule="evenodd" d="M76.4059 4.4477C76.5369 4.43393 76.6469 4.35412 76.7006 4.23374L78.5001 0.189697L80.2996 4.23347C80.353 4.35385 80.463 4.43366 80.5943 4.44743L85 4.90757L81.7065 7.86709C81.6085 7.95503 81.5665 8.08428 81.5937 8.21333L82.5171 12.5415L78.6821 10.3266C78.5679 10.2607 78.4319 10.2609 78.3177 10.3266L74.4827 12.5415L75.406 8.21333C75.4335 8.08439 75.3914 7.95493 75.2935 7.8672L72 4.90767L76.4059 4.4477Z" fill="#F5CC26"/>
</svg>
