<svg width="17" height="16" viewBox="0 0 17 16" fill="none" xmlns="http://www.w3.org/2000/svg">
<path d="M5.15372 0.46582C2.62718 0.46582 0.571411 2.43151 0.571411 4.84652V11.1032C0.571411 13.5179 2.62839 15.4827 5.15556 15.4827H11.7028C14.2296 15.4827 16.2857 13.517 16.2857 11.102V4.84476C16.2857 2.43035 14.2287 0.46582 11.7015 0.46582H5.15372ZM13.1428 2.86852C13.4898 2.86852 13.7714 3.13762 13.7714 3.46919C13.7714 3.80077 13.4898 4.06987 13.1428 4.06987C12.7959 4.06987 12.5143 3.80077 12.5143 3.46919C12.5143 3.13762 12.7959 2.86852 13.1428 2.86852ZM8.42855 4.06987C10.682 4.06987 12.5143 5.82084 12.5143 7.97425C12.5143 10.1277 10.6817 11.8786 8.42855 11.8786C6.17513 11.8786 4.34284 10.1274 4.34284 7.97425C4.34284 5.82114 6.17513 4.06987 8.42855 4.06987ZM8.42855 5.27122C6.86624 5.27122 5.59998 6.48128 5.59998 7.97425C5.59998 9.46723 6.86624 10.6773 8.42855 10.6773C9.99087 10.6773 11.2571 9.46723 11.2571 7.97425C11.2571 6.48128 9.99087 5.27122 8.42855 5.27122Z" fill="#696969"/>
</svg>
