<svg width="19" height="17" viewBox="0 0 19 17" fill="none" xmlns="http://www.w3.org/2000/svg">
<path d="M18.5714 2.32595C17.8888 2.64401 17.1548 2.85605 16.3805 2.95626C17.1678 2.4648 17.7734 1.68094 18.0576 0.75481C17.321 1.20898 16.5051 1.54243 15.6368 1.71822C14.9435 0.945303 13.9545 0.46582 12.8589 0.46582C10.7542 0.46582 9.04848 2.24422 9.04848 4.43677C9.04848 4.74696 9.08295 5.04929 9.14799 5.34273C5.9818 5.17549 3.17367 3.59272 1.29496 1.19052C0.964881 1.77739 0.779189 2.4648 0.779189 3.19018C0.779189 4.56878 1.45041 5.7822 2.47383 6.49731C1.84911 6.47714 1.26114 6.29451 0.746343 6.00142C0.746343 6.01339 0.746343 6.03117 0.746343 6.04793C0.746343 7.97441 2.06017 9.57838 3.80164 9.94364C3.48326 10.0353 3.147 10.0863 2.80033 10.0863C2.55415 10.0863 2.31448 10.0568 2.08228 10.0131C2.56716 11.5873 3.97399 12.7381 5.64067 12.772C4.3366 13.8352 2.69432 14.472 0.908295 14.472C0.599676 14.472 0.298212 14.4536 0 14.4156C1.68683 15.5391 3.69042 16.1978 5.84099 16.1978C12.8488 16.1978 16.6823 10.1458 16.6823 4.89573C16.6823 4.72371 16.6771 4.55237 16.6693 4.38308C17.4176 3.82767 18.0622 3.12657 18.5714 2.32595Z" fill="#696969"/>
</svg>
