<svg width="15" height="16" viewBox="0 0 15 16" fill="none" xmlns="http://www.w3.org/2000/svg">
<path d="M15 0.46582H0V15.4827H15V0.46582ZM5 12.1456H2.8975V6.30571H5V12.1456ZM3.91167 5.23534C3.26917 5.23534 2.84 4.80653 2.84 4.23422C2.84 3.66191 3.26833 3.23309 3.9825 3.23309C4.625 3.23309 5.05417 3.66191 5.05417 4.23422C5.05417 4.80653 4.62583 5.23534 3.91167 5.23534ZM12.5 12.1456H10.465V8.95369C10.465 8.07103 9.9225 7.86747 9.71917 7.86747C9.51583 7.86747 8.8375 8.00345 8.8375 8.95369C8.8375 9.08967 8.8375 12.1456 8.8375 12.1456H6.735V6.30571H8.8375V7.1208C9.10833 6.64526 9.65083 6.30571 10.6683 6.30571C11.6858 6.30571 12.5 7.12079 12.5 8.95369V12.1456Z" fill="#696969"/>
</svg>
