<svg width="20" height="19" viewBox="0 0 20 19" fill="none" xmlns="http://www.w3.org/2000/svg">
<path d="M18.9718 2.19387H4.36918L4.30984 1.98581H4.3097C4.18037 1.53762 3.90895 1.14349 3.5363 0.862394C3.16365 0.58143 2.70995 0.428693 2.24303 0.427277H0.423919C0.189683 0.427277 -0.00012207 0.616904 -0.00012207 0.850921C-0.00012207 1.0848 0.189683 1.27442 0.423919 1.27442H2.24303C2.52567 1.27541 2.80037 1.36774 3.02609 1.53794C3.25167 1.70813 3.41594 1.9467 3.49429 2.21799L6.06325 11.2239C6.23303 11.8117 6.58908 12.3289 7.07799 12.6975C7.5669 13.0661 8.1623 13.2664 8.77474 13.2682H18.1314C18.3656 13.2682 18.5554 13.0786 18.5554 12.8446C18.5554 12.6107 18.3656 12.4211 18.1314 12.4211H8.77474C8.34644 12.4198 7.93022 12.2797 7.58835 12.022C7.2465 11.7641 6.99764 11.4026 6.87895 10.9914L6.70731 10.39H16.0004C16.9007 10.389 17.7637 10.0311 18.4002 9.39518C19.0367 8.7592 19.3947 7.89703 19.3957 6.99771V2.61749C19.3957 2.38361 19.2059 2.19399 18.9718 2.19399L18.9718 2.19387ZM18.5478 6.99781C18.5471 7.67249 18.2784 8.31935 17.8009 8.79648C17.3234 9.27375 16.6759 9.54207 16.0004 9.54294H6.46569L5.13211 4.86826H14.2962C14.5304 4.86826 14.7202 4.67863 14.7202 4.44462C14.7202 4.21074 14.5304 4.02112 14.2962 4.02112H4.89044L4.61077 3.04109H18.548L18.5478 6.99781Z" fill="#1B1A1A"/>
<path d="M8.04706 14.5802C7.52068 14.5802 7.0157 14.789 6.64349 15.1608C6.27127 15.5326 6.06216 16.0368 6.06201 16.5626C6.06201 17.0884 6.27098 17.5927 6.6432 17.9645C7.01541 18.3363 7.52024 18.5453 8.04662 18.5453C8.573 18.5453 9.07783 18.3366 9.45005 17.9648C9.82241 17.593 10.0315 17.0887 10.0315 16.5629C10.031 16.0374 9.82171 15.5334 9.44961 15.1617C9.07769 14.7901 8.57315 14.5809 8.04702 14.5802L8.04706 14.5802ZM8.04706 17.6983C7.74553 17.6983 7.45635 17.5788 7.24313 17.3658C7.02991 17.1528 6.91009 16.864 6.91009 16.5628C6.90995 16.2616 7.02976 15.9728 7.24299 15.7599C7.45622 15.5469 7.74539 15.4272 8.04692 15.4272C8.34845 15.4272 8.63762 15.5469 8.8507 15.7599C9.06392 15.9729 9.1836 16.2617 9.1836 16.5629C9.18332 16.864 9.06336 17.1525 8.85027 17.3654C8.63719 17.5782 8.34831 17.6979 8.04704 17.6983L8.04706 17.6983Z" fill="#1B1A1A"/>
<path d="M16.5707 14.5802C16.0443 14.5802 15.5395 14.789 15.1673 15.1608C14.7949 15.5324 14.5858 16.0367 14.5858 16.5625C14.5857 17.0884 14.7948 17.5927 15.167 17.9645C15.5391 18.3363 16.0439 18.5453 16.5703 18.5453C17.0967 18.5453 17.6016 18.3366 17.9739 17.9648C18.3461 17.593 18.5552 17.0887 18.5553 16.5629C18.5548 16.0374 18.3454 15.5334 17.9734 15.1617C17.6013 14.7901 17.097 14.5809 16.5707 14.5802L16.5707 14.5802ZM16.5707 17.6983C16.2692 17.6983 15.98 17.5788 15.7668 17.3658C15.5536 17.1528 15.4337 16.864 15.4337 16.5628C15.4337 16.2616 15.5536 15.9728 15.7667 15.7599C15.9799 15.5469 16.269 15.4272 16.5706 15.4272C16.8721 15.4272 17.1613 15.5469 17.3745 15.7599C17.5876 15.9729 17.7074 16.2617 17.7073 16.5629C17.707 16.864 17.5872 17.1525 17.3741 17.3654C17.161 17.5782 16.8721 17.6979 16.5707 17.6983L16.5707 17.6983Z" fill="#1B1A1A"/>
<path d="M15.9853 4.74717C16.0651 4.8244 16.1713 4.86826 16.2821 4.86997C16.3391 4.86983 16.3953 4.85833 16.4475 4.83618C16.4982 4.8156 16.5442 4.78536 16.5832 4.74717C16.6233 4.70714 16.6549 4.65958 16.6766 4.60734C16.7452 4.44877 16.7079 4.26436 16.5832 4.14495C16.5445 4.10549 16.4983 4.07383 16.4477 4.05183C16.2891 3.9844 16.1054 4.02131 15.9853 4.14495C15.8608 4.26449 15.8236 4.4489 15.8922 4.60734C15.9136 4.65958 15.9452 4.70714 15.9853 4.74717L15.9853 4.74717Z" fill="#1B1A1A"/>
</svg>
