<svg width="18" height="20" viewBox="0 0 18 20" fill="none" xmlns="http://www.w3.org/2000/svg">
<path d="M11.67 14.459C10.4619 15.3246 8.98436 15.8344 7.38765 15.8344C3.30786 15.8344 -0.00012207 12.5065 -0.00012207 8.40222C-0.00012207 4.29792 3.30786 0.970062 7.38765 0.970062C11.4674 0.970062 14.7754 4.29792 14.7754 8.40222C14.7754 10.4544 13.9489 12.3125 12.6113 13.6574L17.8237 18.9012C18.0627 19.1416 18.0567 19.5273 17.8167 19.7685C17.5752 20.0115 17.1908 20.0132 16.9546 19.7755L11.6692 14.4583L11.67 14.459ZM7.38765 14.96C10.9876 14.96 13.9063 12.0238 13.9063 8.40222C13.9063 4.78062 10.9876 1.84443 7.38765 1.84443C3.78768 1.84443 0.869028 4.78062 0.869028 8.40222C0.869028 12.0238 3.78768 14.96 7.38765 14.96Z" fill="#1B1A1A"/>
</svg>
