<svg width="15" height="14" viewBox="0 0 15 14" fill="none" xmlns="http://www.w3.org/2000/svg">
<path fill-rule="evenodd" clip-rule="evenodd" d="M7.14135 0.232958C7.00533 0.23875 6.88734 0.328587 6.84547 0.458285L5.31351 5.21168L0.325857 5.2018C0.184731 5.20157 0.0594883 5.29254 0.0159225 5.4269C-0.0276403 5.56126 0.0202335 5.70845 0.134471 5.79135L4.17594 8.71915L2.62411 13.4676L2.62423 13.4675C2.58033 13.6018 2.62797 13.749 2.74221 13.8322C2.85634 13.9152 3.01096 13.9151 3.12498 13.8318L7.15512 10.8875L11.1867 13.8318V13.8317C11.3007 13.915 11.4554 13.9151 11.5696 13.8321C11.6837 13.7489 11.7314 13.6016 11.6875 13.4674L10.1356 8.71893L14.1771 5.79112L14.1772 5.79124C14.2916 5.70833 14.3395 5.56114 14.2959 5.42667C14.2522 5.29231 14.1271 5.20134 13.9858 5.20168L8.99819 5.21156L7.46452 0.458169C7.41959 0.318928 7.28743 0.226823 7.14143 0.232955L7.14135 0.232958Z" fill="#F5CC26"/>
</svg>
