<svg width="14" height="16" viewBox="0 0 14 16" fill="none" xmlns="http://www.w3.org/2000/svg">
<path d="M13.4927 15.4342H0.248332C0.111158 15.4342 0 15.323 0 15.1856V14.5227C0 10.7301 3.08211 7.64453 6.87041 7.64453C10.6587 7.64453 13.7408 10.7301 13.7408 14.5227V15.1856C13.7408 15.323 13.6297 15.4342 13.4925 15.4342H13.4927ZM0.496569 14.937H13.2444V14.5227C13.2444 11.0042 10.3851 8.14154 6.87051 8.14154C3.35591 8.14154 0.496569 11.0041 0.496569 14.5227V14.937Z" fill="#9A6437"/>
<path d="M6.87055 8.10008C4.83939 8.10008 3.18695 6.44578 3.18695 4.41235C3.18695 2.37891 4.83939 0.724609 6.87055 0.724609C8.9017 0.724609 10.5541 2.37891 10.5541 4.41235C10.5541 6.44578 8.9017 8.10008 6.87055 8.10008ZM6.87055 1.22194C5.11329 1.22194 3.68361 2.65322 3.68361 4.41246C3.68361 6.1717 5.11329 7.60298 6.87055 7.60298C8.62781 7.60298 10.0575 6.1717 10.0575 4.41246C10.0575 2.65322 8.62781 1.22194 6.87055 1.22194Z" fill="#9A6437"/>
</svg>
