<svg width="47" height="38" viewBox="0 0 47 38" fill="none" xmlns="http://www.w3.org/2000/svg">
<path d="M41.2419 13.8653C41.1 13.7441 40.9195 13.6774 40.7328 13.6774H32.8995V7.41658C32.8995 7.20905 32.8169 7.0099 32.6701 6.86317C32.5232 6.71643 32.3239 6.63398 32.1161 6.63398H28.9828V8.19917H31.3328V32.4597H12.4622C12.3691 31.9087 12.1782 31.3784 11.8984 30.8945H26.6331C26.8408 30.8945 27.0402 30.8121 27.187 30.6653C27.3339 30.5186 27.4164 30.3194 27.4164 30.1119V16.0252H28.9831C29.1908 16.0252 29.3901 15.9427 29.537 15.796C29.6839 15.6492 29.7664 15.4501 29.7664 15.2426V10.547C29.7664 10.3394 29.6839 10.1403 29.537 9.99356C29.3901 9.84682 29.1908 9.76437 28.9831 9.76437H20.4525L23.8443 7.11928L23.9226 7.05674H23.9229C24.9136 6.067 25.3004 4.62407 24.9378 3.27236C24.5751 1.9203 23.518 0.86411 22.1646 0.501789C20.8116 0.139487 19.3674 0.525896 18.3767 1.51568L18.3141 1.59394L16.4499 3.98887L14.5856 1.59394L14.523 1.51568C13.5324 0.525938 12.0881 0.139469 10.7351 0.501789C9.38179 0.864092 8.32461 1.92021 7.96195 3.27236C7.59931 4.62407 7.98608 6.067 8.97679 7.05674L9.05512 7.11928L12.455 9.76437H3.91665C3.48407 9.76437 3.13332 10.1148 3.13332 10.547V15.2426C3.13332 15.4501 3.21585 15.6492 3.36273 15.796C3.5096 15.9427 3.70893 16.0252 3.91665 16.0252H5.48331V29.1808C4.27295 29.8806 3.43752 31.0829 3.20396 32.4601H1.56666V8.19953H3.91665V6.63434H0.78333C0.350753 6.63434 0 6.98476 0 7.41693V33.2427C0 33.4502 0.0825299 33.6493 0.229404 33.7961C0.376278 33.9428 0.575609 34.0253 0.78333 34.0253H3.20396C3.46029 35.4881 4.39435 36.7434 5.72252 37.4104C7.05033 38.0773 8.61628 38.0773 9.94409 37.4104C11.2723 36.7434 12.2063 35.4881 12.4627 34.0253H34.5373C34.7937 35.4881 35.7277 36.7434 37.0559 37.4104C38.3837 38.0773 39.9497 38.0773 41.2775 37.4104C42.6056 36.7434 43.5397 35.4881 43.796 34.0253H46.2167C46.4244 34.0253 46.6237 33.9428 46.7706 33.7961C46.9175 33.6493 47 33.4502 47 33.2427V19.1559C47 18.9271 46.9 18.7097 46.7258 18.5613L41.2419 13.8653ZM13.316 29.3295H10.4254C9.65672 28.8201 8.75521 28.5479 7.83267 28.5469C7.57004 28.5507 7.30847 28.5741 7.04934 28.6174V16.0252H13.316V29.3295ZM18.016 29.3295H14.8826V16.0253H18.016V29.3295ZM25.8493 29.3295H19.5826V16.0253H25.8493V29.3295ZM10.0573 5.91413C9.6265 5.47532 9.38555 4.88522 9.38555 4.27067C9.38555 3.65613 9.6265 3.06601 10.0573 2.62722C10.5039 2.21147 11.0918 1.98018 11.7023 1.98018C12.3126 1.98018 12.9004 2.21146 13.3473 2.62722L15.7991 5.75761C15.9474 5.94872 16.1757 6.06052 16.4177 6.06052C16.6597 6.06052 16.8884 5.94872 17.0367 5.75761L19.4885 2.62722C19.935 2.21147 20.5229 1.98018 21.1335 1.98018C21.744 1.98018 22.3319 2.21146 22.7785 2.62722C23.2089 3.06603 23.4502 3.65613 23.4502 4.27067C23.4502 4.88522 23.2089 5.47534 22.7785 5.91413L19.6451 8.36362C18.9178 7.28193 17.6987 6.63314 16.3944 6.63314C15.09 6.63314 13.8712 7.28192 13.1436 8.36362L10.0573 5.91413ZM18.7991 10.5472C18.7991 11.1698 18.5515 11.7672 18.1109 12.2074C17.6703 12.6475 17.0723 12.8949 16.4492 12.8949C15.8261 12.8949 15.228 12.6476 14.7874 12.2074C14.3469 11.7672 14.0992 11.1697 14.0992 10.5472C14.0992 9.9247 14.3468 9.32715 14.7874 8.88702C15.2281 8.44689 15.8261 8.19945 16.4492 8.19945C17.0723 8.19945 17.6704 8.44681 18.1109 8.88702C18.5514 9.32723 18.7991 9.9247 18.7991 10.5472ZM4.69917 14.4602V11.3298H12.6108C12.8524 12.5184 13.6319 13.528 14.7216 14.063C15.8109 14.5979 17.0873 14.5979 18.1767 14.063C19.2663 13.5281 20.0458 12.5184 20.2874 11.3298H28.1991V14.4602H4.69917ZM7.83249 36.3729C7.00161 36.3729 6.2046 36.0431 5.61679 35.4562C5.02929 34.8689 4.69917 34.0726 4.69917 33.2425C4.69917 32.4124 5.02929 31.6162 5.61679 31.0289C6.20463 30.442 7.00162 30.1121 7.83249 30.1121C8.66336 30.1121 9.46039 30.442 10.0482 31.0289C10.6357 31.6162 10.9658 32.4124 10.9658 33.2425C10.9658 34.0726 10.6357 34.8689 10.0482 35.4562C9.46035 36.0431 8.66336 36.3729 7.83249 36.3729ZM39.1657 36.3729C38.3348 36.3729 37.5378 36.0431 36.95 35.4562C36.3625 34.8689 36.0324 34.0726 36.0324 33.2425C36.0324 32.4124 36.3625 31.6162 36.95 31.0289C37.5378 30.442 38.3348 30.1121 39.1657 30.1121C39.9966 30.1121 40.7936 30.442 41.3814 31.0289C41.9689 31.6162 42.299 32.4124 42.299 33.2425C42.299 34.0726 41.9689 34.8689 41.3814 35.4562C40.7936 36.0431 39.9966 36.3729 39.1657 36.3729ZM45.4323 28.547H43.8657V30.1121H45.4323V32.4599H43.795C43.5387 30.9972 42.6047 29.7418 41.2765 29.0748C39.9487 28.4079 38.3827 28.4079 37.0549 29.0748C35.7268 29.7418 34.7927 30.9971 34.5364 32.4599H32.8991V15.2428H40.4425L45.4323 19.5156V28.547Z" fill="white"/>
<path d="M39.1659 16.8079H35.2492C34.8166 16.8079 34.4659 17.1583 34.4659 17.5905V26.199C34.4659 26.4066 34.5484 26.6057 34.6953 26.7524C34.8422 26.8992 35.0415 26.9816 35.2492 26.9816H43.0825C43.2902 26.9816 43.4896 26.8992 43.6364 26.7524C43.7833 26.6057 43.8658 26.4066 43.8658 26.199V20.7209C43.8648 20.4826 43.7553 20.2579 43.5683 20.1105L39.6516 16.9801C39.5138 16.8697 39.3425 16.8089 39.1659 16.8079ZM42.2992 25.4164H36.0325V18.3731H38.8917L42.2992 21.0964V25.4164Z" fill="white"/>
<path d="M15.666 8.98218V9.76463H14.8827V11.3295H15.666V12.112H17.2327V11.3295H18.016V9.76463H17.2327V8.98218H15.666Z" fill="white"/>
<path d="M5.4827 6.63428H7.04936V8.19918H5.4827V6.63428Z" fill="white"/>
<path d="M25.8492 6.63428H27.4159V8.19918H25.8492V6.63428Z" fill="white"/>
</svg>
