<svg width="36" height="48" viewBox="0 0 36 48" fill="none" xmlns="http://www.w3.org/2000/svg">
<path d="M11.6717 30.0437L6.74047 27.7991C6.48649 27.6843 6.19384 27.7054 5.95885 27.8556C5.72495 28.0058 5.58374 28.2643 5.58374 28.5421V33.0323C5.58374 33.3524 5.77057 33.6429 6.06249 33.7756L10.9937 36.0198C11.1014 36.069 11.217 36.0931 11.3323 36.0931C11.487 36.0931 11.6403 36.0494 11.7746 35.963C12.0085 35.8128 12.1497 35.5543 12.1497 35.2765V30.7867C12.1497 30.4673 11.9629 30.1764 11.6717 30.0437V30.0437ZM10.5149 34.0075L7.21846 32.507V29.8119L10.5149 31.3124V34.0075Z" fill="white"/>
<path d="M30.0041 27.8563C29.7695 27.705 29.4765 27.6842 29.2225 27.7997L24.2913 30.0443C24.0001 30.177 23.8133 30.468 23.8133 30.7877V35.2775C23.8133 35.5553 23.9545 35.8138 24.1884 35.964C24.3227 36.05 24.4759 36.0941 24.6307 36.0941C24.7456 36.0941 24.8613 36.0697 24.9693 36.0208L29.9005 33.7766C30.1928 33.6439 30.3793 33.3537 30.3793 33.0333V28.5427C30.3793 28.2649 30.238 28.0064 30.0041 27.8562V27.8563ZM28.7446 32.5073L25.4481 34.0078V31.3126L28.7446 29.8121V32.5073Z" fill="white"/>
<path d="M35.907 18.1048C35.8971 18.0785 35.8851 18.0552 35.8727 18.03C35.8406 17.9655 35.8012 17.9072 35.7534 17.8528C35.737 17.8346 35.7238 17.8149 35.7059 17.7982C35.6414 17.7373 35.5695 17.6833 35.4855 17.6454L35.4655 17.6363H35.4651L26.9732 13.772V8.94425C26.9732 4.21632 23.1236 0.369873 18.3908 0.369873C13.6581 0.369873 9.80843 4.21632 9.80843 8.94425V12.619H7.35632C7.01404 12.619 6.70826 12.8319 6.59004 13.152C6.47109 13.4724 6.56449 13.8329 6.82466 14.0553L7.35997 14.5136L0.479109 17.6451C0.395183 17.6831 0.323295 17.737 0.258708 17.7979C0.240828 17.8147 0.227327 17.8344 0.210907 17.8529C0.163105 17.9069 0.123331 17.9656 0.0915894 18.0301C0.0791831 18.0549 0.0671413 18.0782 0.057289 18.1045C0.0237179 18.1949 0 18.289 0 18.3888V38.6976C0 39.0177 0.186828 39.3083 0.478746 39.4409L17.6435 47.2523C17.6556 47.2578 17.6687 47.2556 17.6808 47.2603C17.7771 47.2989 17.8774 47.3259 17.9825 47.3259C17.9847 47.3259 17.9869 47.3245 17.9895 47.3245C18.0898 47.3234 18.1872 47.2982 18.2814 47.2607C18.2942 47.2556 18.3077 47.2578 18.3204 47.2523L35.4852 39.4409C35.7775 39.3079 35.9643 39.0177 35.9643 38.6973V18.3894C35.9643 18.2895 35.9406 18.1955 35.907 18.1054L35.907 18.1048ZM10.6255 14.2521C11.0772 14.2521 11.4428 13.8865 11.4428 13.4355V8.9442C11.4428 5.11669 14.5598 2.00304 18.3905 2.00304C22.2212 2.00304 25.3382 5.11669 25.3382 8.9442V16.702H22.0687V8.9442C22.0687 6.91799 20.4186 5.26947 18.3905 5.26947C16.3624 5.26947 14.7123 6.91799 14.7123 8.9442V13.4355C14.7123 13.8865 15.078 14.2521 15.5297 14.2521H16.5898L13.0776 17.2598L9.75299 14.4126C9.74387 14.3852 9.74605 14.3572 9.73401 14.3305C9.72015 14.2999 9.69424 14.2802 9.67709 14.2522L10.6255 14.2521ZM8.72805 15.6855L12.546 18.9549C12.6985 19.0865 12.8886 19.1517 13.0776 19.1517C13.2666 19.1517 13.4568 19.0865 13.6093 18.9552L19.3309 14.0556C19.5911 13.8332 19.6845 13.4727 19.5655 13.1522C19.4473 12.8318 19.1415 12.6189 18.7992 12.6189H16.3471V8.94414C16.3471 7.81844 17.2634 6.90262 18.3905 6.90262C19.5177 6.90262 20.434 7.81839 20.434 8.94414V17.5185C20.434 17.9695 20.7996 18.3351 21.2513 18.3351H26.1556C26.6073 18.3351 26.9729 17.9695 26.9729 17.5185V15.5663L33.1751 18.3887L17.9823 25.3021L2.78949 18.3883L8.72805 15.6855ZM1.63439 38.1716V19.6575L17.1644 26.7245V45.2386L1.63439 38.1716ZM18.7992 45.239V26.7249L34.3292 19.6579V38.172L18.7992 45.239Z" fill="white"/>
</svg>
