<svg width="43" height="39" viewBox="0 0 43 39" fill="none" xmlns="http://www.w3.org/2000/svg">
<path d="M40.1853 38.3297H3.59252C2.84622 38.3297 2.13021 38.0334 1.60221 37.5061C1.07444 36.9785 0.777832 36.2632 0.777832 35.5176V3.17729C0.777832 2.43169 1.07441 1.71635 1.60221 1.18885C2.13028 0.661566 2.84625 0.365234 3.59252 0.365234H40.1853C40.9316 0.365234 41.6476 0.661536 42.1756 1.18885C42.7034 1.71642 43 2.43172 43 3.17729V35.5176C43 36.2632 42.7034 36.9786 42.1756 37.5061C41.6476 38.0334 40.9316 38.3297 40.1853 38.3297ZM3.59252 1.77187C3.21937 1.77187 2.86124 1.91987 2.59737 2.18351C2.3335 2.44715 2.18534 2.80494 2.18534 3.17773V35.5181C2.18534 35.8909 2.33348 36.2487 2.59737 36.5123C2.86126 36.7759 3.21939 36.9239 3.59252 36.9239H40.1853C40.5585 36.9239 40.9166 36.7759 41.1805 36.5123C41.4444 36.2487 41.5925 35.8909 41.5925 35.5181V3.17773C41.5925 2.80493 41.4444 2.44713 41.1805 2.18351C40.9166 1.91988 40.5585 1.77187 40.1853 1.77187H3.59252Z" fill="white"/>
<path d="M6.4078 7.39472C5.84792 7.39472 5.31071 7.17261 4.91488 6.77722C4.51905 6.38184 4.29669 5.84524 4.29669 5.28598C4.29669 4.72672 4.51905 4.19042 4.91488 3.79504C5.31071 3.39965 5.84791 3.17725 6.4078 3.17725C6.96769 3.17725 7.50459 3.39965 7.90042 3.79504C8.29625 4.19042 8.5189 4.72672 8.5189 5.28598C8.5189 5.84524 8.29625 6.38184 7.90042 6.77722C7.50459 7.17261 6.96769 7.39472 6.4078 7.39472ZM6.4078 4.58319C6.12301 4.58319 5.86648 4.7544 5.75751 5.01711C5.64854 5.27982 5.70891 5.58224 5.91007 5.78318C6.11122 5.98411 6.41398 6.04442 6.677 5.93556C6.94 5.82672 7.11141 5.57048 7.11141 5.286C7.11141 5.09978 7.03719 4.92091 6.90524 4.78912C6.7733 4.65732 6.59423 4.58319 6.4078 4.58319Z" fill="white"/>
<path d="M12.0369 7.39472C11.477 7.39472 10.9401 7.17261 10.5443 6.77722C10.1484 6.38184 9.92578 5.84524 9.92578 5.28598C9.92578 4.72672 10.1484 4.19042 10.5443 3.79504C10.9401 3.39965 11.477 3.17725 12.0369 3.17725C12.5968 3.17725 13.134 3.39965 13.5298 3.79504C13.9256 4.19042 14.148 4.72672 14.148 5.28598C14.148 5.84524 13.9256 6.38184 13.5298 6.77722C13.134 7.17261 12.5968 7.39472 12.0369 7.39472ZM12.0369 4.58319C11.7524 4.58319 11.4959 4.7544 11.3869 5.01711C11.2779 5.27982 11.338 5.58224 11.5394 5.78318C11.7406 5.98411 12.0434 6.04442 12.3064 5.93556C12.5694 5.82672 12.7408 5.57048 12.7408 5.286C12.7408 5.09978 12.6666 4.92091 12.5346 4.78912C12.4027 4.65732 12.2236 4.58319 12.0369 4.58319Z" fill="white"/>
<path d="M42.2964 10.2082H1.48143C1.09297 10.2082 0.777832 9.89338 0.777832 9.50505C0.777832 9.11703 1.09297 8.80225 1.48143 8.80225H42.2964C42.6849 8.80225 43 9.11703 43 9.50505C43 9.89338 42.6849 10.2082 42.2964 10.2082Z" fill="white"/>
<path d="M36.6666 10.2084C36.2779 10.2084 35.963 9.89354 35.963 9.50514V1.06866C35.963 0.680561 36.2779 0.365723 36.6666 0.365723C37.0554 0.365723 37.3702 0.680561 37.3702 1.06866V9.50514C37.3702 9.6917 37.2963 9.87059 37.1643 10.0024C37.0321 10.1342 36.8533 10.2084 36.6666 10.2084L36.6666 10.2084Z" fill="white"/>
<path d="M21.8889 34.8141C19.6494 34.8141 17.5015 33.9255 15.9179 32.3431C14.3343 30.7609 13.4445 28.6153 13.4445 26.3776C13.4445 24.1402 14.3343 21.9944 15.9179 20.4122C17.5015 18.8301 19.6494 17.9412 21.8889 17.9412C24.1284 17.9412 26.2763 18.8301 27.8599 20.4122C29.4435 21.9944 30.3333 24.1402 30.3333 26.3776C30.3309 28.6144 29.4403 30.7589 27.8573 32.3404C26.2742 33.9223 24.1278 34.8118 21.8889 34.8141ZM21.8889 19.3475C20.0225 19.3475 18.2328 20.0881 16.913 21.4066C15.5933 22.7251 14.852 24.5132 14.852 26.3778C14.852 28.2424 15.5933 30.0308 16.913 31.349C18.2328 32.6675 20.0225 33.4084 21.8889 33.4084C23.7553 33.4084 25.545 32.6675 26.8647 31.349C28.1845 30.0308 28.9258 28.2424 28.9258 26.3778C28.9237 24.5141 28.1818 22.7268 26.8624 21.4089C25.5433 20.091 23.7547 19.3495 21.8889 19.3475Z" fill="white"/>
<path d="M24.7035 19.3476C24.315 19.3476 23.9999 19.0327 23.9999 18.6446V15.8323C23.9999 15.0787 23.5976 14.3826 22.9444 14.0059C22.2911 13.629 21.4865 13.629 20.8333 14.0059C20.18 14.3826 19.7777 15.0787 19.7777 15.8323V18.6446C19.7777 19.0327 19.4626 19.3476 19.0741 19.3476C18.6854 19.3476 18.3702 19.0327 18.3702 18.6446V15.8323C18.3702 14.5765 19.0409 13.416 20.1297 12.7881C21.2183 12.1602 22.5595 12.1602 23.648 12.7881C24.7368 13.416 25.4074 14.5765 25.4074 15.8323V18.6446C25.4074 18.8309 25.3332 19.0098 25.2013 19.1416C25.0693 19.2734 24.8902 19.3476 24.7035 19.3476L24.7035 19.3476Z" fill="white"/>
<path d="M21.8889 27.7838C21.1423 27.7838 20.4264 27.4875 19.8986 26.9602C19.3708 26.4327 19.0742 25.7174 19.0742 24.9718C19.0742 24.2259 19.3708 23.5106 19.8986 22.9833C20.4264 22.4558 21.1423 22.1594 21.8889 22.1594C22.6355 22.1594 23.3514 22.4557 23.8792 22.9833C24.407 23.5106 24.7036 24.2259 24.7036 24.9718C24.7036 25.7174 24.407 26.4327 23.8792 26.9602C23.3514 27.4875 22.6355 27.7838 21.8889 27.7838ZM21.8889 23.5656C21.5158 23.5656 21.1576 23.7136 20.8938 23.9775C20.6299 24.2412 20.4814 24.5987 20.4814 24.9718C20.4814 25.3446 20.6299 25.7024 20.8938 25.966C21.1576 26.2296 21.5158 26.3776 21.8889 26.3776C22.262 26.3776 22.6202 26.2296 22.8841 25.966C23.1479 25.7024 23.2964 25.3446 23.2964 24.9718C23.2964 24.5987 23.148 24.2412 22.8841 23.9775C22.6202 23.7136 22.262 23.5656 21.8889 23.5656Z" fill="white"/>
<path d="M21.8889 30.5954C21.5001 30.5954 21.1853 30.2809 21.1853 29.8926V27.081C21.1853 26.6927 21.5001 26.3779 21.8889 26.3779C22.2777 26.3779 22.5925 26.6927 22.5925 27.081V29.8926C22.5925 30.0791 22.5186 30.2577 22.3866 30.3897C22.2544 30.5215 22.0756 30.5954 21.8889 30.5954L21.8889 30.5954Z" fill="white"/>
</svg>
