<svg width="48" height="48" viewBox="0 0 48 48" fill="none" xmlns="http://www.w3.org/2000/svg">
<path d="M44.9518 18.2307C43.3125 18.2307 41.9772 19.5647 41.9772 21.2025V25.7309C41.0056 25.4269 39.8926 25.6568 39.1211 26.4276L33.1791 32.3641C27.8604 34.1799 26.7996 39.7233 26.5919 41.6874H26.5103C26.1022 41.6874 25.7686 42.0207 25.7686 42.4285V47.0677C25.7686 47.2676 25.8502 47.4532 25.9837 47.5938C26.1248 47.7347 26.3102 47.8087 26.5103 47.8087L38.55 47.7791C38.9581 47.7791 39.2918 47.4457 39.2918 47.038V42.4281C39.2918 42.0204 38.9581 41.687 38.55 41.687H38.4981C38.6169 41.2425 38.8468 40.8347 39.1733 40.5014L46.7026 32.9791C47.4888 32.1936 47.9191 31.1486 47.9191 30.0369L47.9188 21.2027C47.9263 19.565 46.5909 18.2309 44.9516 18.2309L44.9518 18.2307ZM37.808 46.3046L27.2519 46.3268V43.1697H37.808V46.3046ZM46.4429 30.0443C46.4429 30.7632 46.1611 31.4302 45.6567 31.9417L38.127 39.4565C37.5187 40.0642 37.1182 40.8274 36.9696 41.6575H28.0904C28.3056 39.827 29.2997 35.1653 33.8173 33.7128C33.9286 33.6756 34.0325 33.6166 34.1141 33.5275L40.1821 27.4652C40.7087 26.9391 41.5693 26.9391 42.096 27.4652C42.3484 27.7173 42.4891 28.0582 42.4891 28.4212C42.4891 28.7842 42.348 29.1179 42.096 29.3772L38.2461 33.2163C37.9568 33.5053 37.9568 33.9724 38.2461 34.2614C38.5354 34.5504 39.0029 34.5504 39.2922 34.2614L43.1421 30.4223C44.1212 29.4366 44.2326 27.91 43.4686 26.8056V26.7538V21.1878C43.4686 20.3652 44.1362 19.6981 44.9596 19.6981C45.7827 19.6981 46.4432 20.3798 46.4432 21.2025L46.4429 30.0443Z" fill="white"/>
<path d="M21.8595 41.6945H21.7779C21.5703 39.7306 20.5095 34.1868 15.1908 32.3712L9.24872 26.4347C8.47724 25.6639 7.37208 25.4343 6.39263 25.738V21.2096C6.39263 19.5719 5.05734 18.2378 3.41807 18.2378C1.78597 18.2303 0.450684 19.5644 0.450684 21.2022V30.0433C0.450684 31.155 0.880995 32.2 1.67467 32.9855L9.20405 40.5078C9.53771 40.8412 9.76038 41.2489 9.87923 41.6935H9.82732C9.4192 41.6935 9.08554 42.0268 9.08554 42.4346V47.0444C9.08554 47.4522 9.4192 47.7855 9.82732 47.7855L21.867 47.8152C22.06 47.8152 22.2529 47.7336 22.3936 47.6002C22.5347 47.4593 22.6088 47.2741 22.6088 47.0741V42.4349C22.6013 42.0275 22.2748 41.6942 21.8595 41.6942L21.8595 41.6945ZM2.72071 31.9414C2.2163 31.4303 1.9342 30.7633 1.9342 30.0444V21.2023C1.9342 20.3797 2.60186 19.7126 3.42528 19.7126C4.24868 19.7126 4.91637 20.3797 4.91637 21.2023V26.7683V26.8201C4.1524 27.9243 4.26373 29.4511 5.24286 30.4368L9.09274 34.2759C9.382 34.5649 9.84953 34.5649 10.1388 34.2759C10.4281 33.9869 10.4281 33.5198 10.1388 33.2308L6.28893 29.3917C5.76232 28.8656 5.76232 28.0058 6.28893 27.4796C6.81554 26.9535 7.67615 26.9535 8.20281 27.4796L14.2708 33.5419C14.3525 33.6235 14.4563 33.69 14.5676 33.7272C19.1371 35.1947 20.094 39.8339 20.2945 41.6719H11.4004C11.2522 40.8418 10.8516 40.0786 10.2431 39.4709L2.72071 31.9414ZM21.1173 46.3265L10.5612 46.3043V43.1769H21.1173V46.3265Z" fill="white"/>
<path d="M32.6456 12.8433C32.6456 8.18151 28.8548 4.39453 24.1889 4.39453C19.5228 4.39453 15.7323 8.18177 15.7323 12.8433C15.7323 17.505 19.5231 21.292 24.1889 21.292C28.855 21.292 32.6456 17.5051 32.6456 12.8433ZM24.1889 19.8098C20.3462 19.8098 17.2159 16.6824 17.2159 12.8433C17.2159 9.00413 20.3462 5.87671 24.1889 5.87671C28.0316 5.87671 31.162 9.00413 31.162 12.8433C31.162 16.6824 28.0316 19.8098 24.1889 19.8098Z" fill="white"/>
<path d="M29.3661 30.4294C29.4997 30.6591 29.7445 30.8 30.0116 30.8H30.0782C30.3674 30.7778 30.6123 30.585 30.7086 30.3182L32.2369 26.1604L36.6062 26.9164C36.8955 26.9683 37.1776 26.8424 37.3405 26.6124C37.5037 26.3753 37.5184 26.0641 37.3777 25.8195L33.9506 19.8905C34.3884 19.7425 34.774 19.5125 35.0189 19.0976C35.4417 18.364 35.1302 17.5117 34.8632 16.7557C34.7221 16.3701 34.5367 15.844 34.5886 15.6366C34.6405 15.4513 35.0708 15.0883 35.3526 14.8512C35.983 14.325 36.6879 13.7321 36.6879 12.8576C36.6879 11.9831 35.9758 11.3901 35.3526 10.864C35.0633 10.6269 34.633 10.2638 34.5886 10.0786C34.5292 9.87111 34.7221 9.34499 34.8632 8.95948C35.1378 8.20339 35.4492 7.35109 35.0189 6.61756C34.5886 5.87648 33.6836 5.71335 32.8899 5.57246C32.4893 5.50593 31.9477 5.40937 31.8069 5.26129C31.6587 5.11321 31.562 4.57208 31.4954 4.17182C31.3544 3.37137 31.1911 2.47469 30.4494 2.04477C29.7151 1.62237 28.862 1.92603 28.1052 2.20035C27.7193 2.34127 27.1927 2.52654 26.9851 2.47467C26.7997 2.42281 26.4363 1.9929 26.199 1.70391C25.6723 1.07407 25.0788 0.369873 24.2035 0.369873C23.3282 0.369873 22.7346 1.08126 22.208 1.70391C21.9707 1.9929 21.6073 2.42281 21.4219 2.47467C21.2142 2.52653 20.6876 2.34127 20.3018 2.20035C19.545 1.92603 18.6919 1.61486 17.9576 2.04477C17.2159 2.47468 17.0526 3.37881 16.9116 4.17182C16.845 4.57204 16.7483 5.11315 16.6001 5.26129C16.4519 5.40943 15.9102 5.50593 15.5096 5.57246C14.6934 5.6987 13.7959 5.85429 13.3656 6.59537C12.9428 7.32894 13.2543 8.18123 13.5213 8.93729C13.6624 9.32285 13.8478 9.84901 13.7959 10.0564C13.744 10.2416 13.3137 10.6047 13.0244 10.8418C12.394 11.3679 11.6892 11.9609 11.6892 12.8354C11.6892 13.7099 12.4012 14.3029 13.0244 14.829C13.3137 15.0661 13.744 15.4291 13.7884 15.6144C13.8478 15.8219 13.6549 16.348 13.5138 16.7335C13.2393 17.4896 12.9278 18.3419 13.3581 19.0754C13.5955 19.4903 13.9885 19.7203 14.4264 19.8683L10.9993 25.7973C10.8583 26.0495 10.8658 26.3531 11.0365 26.5903C11.1998 26.8274 11.4815 26.9461 11.7708 26.8943L16.1402 26.1382L17.6684 30.296C17.7647 30.5628 18.0171 30.7556 18.2988 30.7778H18.3654C18.625 30.7778 18.8774 30.6369 19.0109 30.4073L22.5121 24.3449C22.9646 24.8489 23.4837 25.3084 24.1886 25.3084C24.8936 25.3084 25.4126 24.8488 25.8652 24.3449L29.3661 30.4294ZM31.8811 24.5896C31.5249 24.5302 31.1837 24.7305 31.0577 25.0638L29.8634 28.3175L26.9407 23.2555C26.9554 23.248 26.9704 23.2333 26.9779 23.2333C27.1856 23.1815 27.7122 23.3667 28.098 23.5076C28.8548 23.782 29.7079 24.0856 30.4422 23.6632C31.1839 23.2333 31.3472 22.3292 31.4882 21.5362C31.5548 21.136 31.6515 20.5948 31.7997 20.4542C31.896 20.358 32.1559 20.2911 32.4301 20.2318L35.2934 25.1897L31.8811 24.5896ZM18.5212 28.3175L17.327 25.0639C17.2009 24.7305 16.8598 24.5302 16.5036 24.5896L13.084 25.1826L15.9548 20.2247C16.2365 20.284 16.4964 20.3581 16.5852 20.4471C16.7334 20.5952 16.8301 21.1363 16.8967 21.5366C17.0377 22.337 17.201 23.2337 17.9427 23.6636C18.677 24.086 19.5301 23.7824 20.2869 23.5081C20.6728 23.3671 21.1994 23.1819 21.407 23.2337C21.4217 23.2337 21.4367 23.2559 21.4514 23.2559L18.5212 28.3175ZM24.1886 23.8485C24.0032 23.8485 23.5654 23.3224 23.328 23.0406C22.883 22.5144 22.423 21.9658 21.7851 21.7955C21.6294 21.7512 21.4736 21.7362 21.3179 21.7362C20.806 21.7362 20.2869 21.9214 19.7825 22.1067C19.456 22.2254 18.8403 22.4476 18.6845 22.3735C18.5434 22.292 18.4174 21.6028 18.358 21.2694C18.2391 20.5802 18.1131 19.8688 17.6309 19.3945C17.1562 18.9202 16.4442 18.7943 15.7543 18.6681C15.4206 18.6087 14.7304 18.4903 14.6491 18.3419C14.575 18.1863 14.7973 17.5711 14.9162 17.2449C15.1535 16.5854 15.4059 15.8962 15.2276 15.2367C15.0569 14.5993 14.508 14.1397 13.9814 13.6952C13.6997 13.4581 13.1727 13.0135 13.1727 12.8354C13.1727 12.6501 13.6993 12.2127 13.9814 11.9755C14.508 11.531 15.0572 11.0713 15.2276 10.4341C15.4056 9.77453 15.1535 9.09252 14.9162 8.4258C14.7973 8.09962 14.575 7.48447 14.6491 7.32882C14.7307 7.18791 15.4206 7.06201 15.7543 7.00264C16.4441 6.8839 17.1562 6.758 17.6309 6.27623C18.1056 5.80197 18.2316 5.0906 18.358 4.40135C18.4174 4.068 18.5359 3.37844 18.6845 3.29721C18.8402 3.23067 19.456 3.44529 19.7825 3.56402C20.4426 3.80115 21.1325 4.0533 21.7926 3.87519C22.4306 3.7046 22.8906 3.15629 23.3356 2.63016C23.5729 2.34867 24.0179 1.82221 24.1962 1.82221C24.3741 1.82221 24.8194 2.34833 25.0568 2.63016C25.5018 3.15628 25.9619 3.70496 26.5997 3.87519C27.2599 4.05296 27.9425 3.80115 28.6099 3.56402C28.9364 3.44529 29.5521 3.22317 29.7079 3.29721C29.8561 3.37875 29.9749 4.06797 30.0344 4.40135C30.1532 5.09056 30.2792 5.80194 30.7615 6.27623C31.2362 6.7505 31.9482 6.8764 32.6381 6.99514C32.9718 7.0545 33.662 7.1729 33.7433 7.32132C33.8174 7.4769 33.5951 8.09208 33.4762 8.4183C33.2389 9.07783 32.9865 9.76701 33.1647 10.4266C33.3355 11.0639 33.8843 11.5235 34.4109 11.968C34.6927 12.2052 35.2196 12.6426 35.2196 12.8279C35.2196 13.0131 34.693 13.4505 34.4109 13.6877C33.8843 14.1323 33.3351 14.5919 33.1647 15.2292C32.9868 15.8887 33.2388 16.5707 33.4762 17.2374C33.5951 17.5708 33.8174 18.1788 33.7433 18.3344C33.6616 18.4753 32.9718 18.6012 32.6381 18.6606C31.9482 18.7793 31.2362 18.9052 30.7615 19.387C30.2867 19.8613 30.1607 20.5726 30.0344 21.2619C29.9749 21.5952 29.8564 22.2848 29.7079 22.366C29.5522 22.4326 28.9364 22.2179 28.6099 22.0992C27.9497 21.8621 27.2599 21.6099 26.5997 21.788C25.9618 21.9586 25.5017 22.5069 25.0568 23.0331C24.8119 23.3224 24.3741 23.8485 24.1887 23.8485L24.1886 23.8485Z" fill="white"/>
<path d="M27.7198 9.42622L22.453 14.6881L20.6577 12.8945C20.3684 12.6055 19.9009 12.6055 19.6116 12.8945C19.3223 13.1835 19.3223 13.6506 19.6116 13.9396L21.9261 16.2519C22.0743 16.4 22.2597 16.4668 22.4527 16.4668C22.6456 16.4668 22.8311 16.3928 22.9793 16.2519L28.7728 10.4638C29.0621 10.1748 29.0621 9.70772 28.7728 9.41871C28.4842 9.13006 28.0092 9.13722 27.7199 9.42622L27.7198 9.42622Z" fill="white"/>
</svg>
