<svg width="203" height="72" viewBox="0 0 203 72" fill="none" xmlns="http://www.w3.org/2000/svg">
<path d="M54.4764 46.0581C54.4175 45.8087 54.3664 45.5516 54.2855 45.3237V45.3242C53.9719 44.3009 53.4389 43.3585 52.7231 42.563C51.6518 41.3763 50.2178 40.5783 48.6457 40.2946C48.7628 39.0096 48.8728 37.5264 48.9685 35.8889L49.1445 32.3867L49.2176 30.4922C49.2407 30.1009 49.2407 29.7086 49.2176 29.3173L49.1297 28.6709L48.9828 28.0322V28.0328C48.5981 26.6745 47.8302 25.4561 46.7712 24.5239C45.7122 23.5912 44.4076 22.9843 43.0131 22.7753C42.1965 22.6913 41.3765 22.6544 40.5558 22.6652C37.6224 22.6211 34.5273 22.5991 31.4689 22.5991C28.4105 22.5991 25.3446 22.5991 22.382 22.658H22.3815C21.5614 22.6483 20.7408 22.6852 19.9248 22.7681C18.5271 22.9725 17.2179 23.5763 16.1549 24.508C15.0923 25.4392 14.3203 26.6581 13.9325 28.018C13.8184 28.441 13.7396 28.8738 13.6981 29.3102C13.6741 29.7015 13.6741 30.0938 13.6981 30.4851L13.7713 32.3796L13.9473 35.8818C14.0353 37.409 14.1381 38.8185 14.2404 40.0084C13.1912 40.1897 12.192 40.5902 11.307 41.1828C9.39883 42.4535 8.15608 44.5103 7.91876 46.7925V47.6002V55.6033C7.91876 55.8384 7.91876 56.1319 7.96276 56.3962C8.00676 56.6605 8.04359 56.9324 8.08759 57.1967C8.54751 59.3023 9.88119 61.1127 11.7547 62.175C12.6561 62.6897 13.6553 63.0098 14.6881 63.1148C14.9449 63.1148 15.1941 63.1148 15.4217 63.1517H17.1959L21.5378 63.0856C19.5652 65.0605 17.6067 68.2252 17.4968 70.0097L17.4973 70.0092C17.748 70.2714 18.0283 70.5029 18.3332 70.6996C18.5757 70.8978 18.8418 71.0653 19.1252 71.199C21.3256 70.3324 24.8239 65.6553 25.3078 63.0268C29.7816 62.9459 33.9256 62.8435 37.5998 62.7257C37.8346 65.2737 41.5017 70.2884 43.8049 71.1917C44.1297 71.0319 44.4352 70.8348 44.714 70.6043C44.9826 70.4342 45.2292 70.2325 45.4476 70.002C45.3305 68.049 43.0273 64.51 40.9005 62.6007C43.0272 62.5197 44.9487 62.4393 46.6503 62.3436V62.3441C47.1409 62.234 47.4617 61.7617 47.3839 61.2644C47.4039 60.8132 47.0928 60.4147 46.6503 60.3246C39.8517 59.9574 29.356 59.6931 17.2035 59.5241H15.1131V59.5246C14.5939 59.457 14.0945 59.2818 13.6464 59.0104C12.7281 58.4572 12.0845 57.5434 11.8717 56.492L11.8205 56.0956V47.189C11.9433 46.1001 12.546 45.1234 13.4632 44.5258C14.3805 43.9281 15.5168 43.7719 16.5609 44.0996C17.605 44.4274 18.4487 45.2049 18.8609 46.22C18.9617 46.47 19.0303 46.7312 19.0661 46.998C19.1111 47.3166 19.128 47.6387 19.1178 47.9599V50.4859C19.1152 51.0304 19.3347 51.5528 19.7245 51.9317C20.1149 52.3112 20.6423 52.5156 21.1861 52.4977C28.3075 52.4977 35.2232 52.4388 41.7219 52.3655H41.7659H41.7653C42.2652 52.3655 42.744 52.1637 43.0935 51.8057C43.4429 51.4482 43.6332 50.9643 43.6209 50.4639V47.5272C43.6071 46.4721 44.0184 45.4565 44.7623 44.7088C45.5056 43.9615 46.5186 43.5456 47.5719 43.5548C48.6258 43.5641 49.6311 43.9984 50.3612 44.7589C50.775 45.1759 51.0948 45.6768 51.2999 46.2273L51.4248 46.6457L51.5056 47.0714V48.1136L51.6227 52.6438L51.6887 54.7657V55.7496V55.7506C51.6893 55.9965 51.6724 56.2418 51.6376 56.4851C51.4734 57.4515 51.0027 58.3397 50.2952 59.0177C49.6531 59.6323 48.8489 60.0502 47.9777 60.2223C47.5515 60.4113 47.3029 60.8615 47.3689 61.3235C47.3669 61.5519 47.4579 61.7711 47.6216 61.9309C47.7848 62.0902 48.0063 62.1757 48.2345 62.168C49.5288 62.0549 50.7613 61.5616 51.7768 60.7508C52.9632 59.8233 53.8109 58.5305 54.19 57.0719C54.279 56.6734 54.3353 56.2683 54.3583 55.8606C54.3583 55.4493 54.3583 55.1261 54.4023 54.7958L54.4683 52.6738L54.5855 48.1437V46.8146C54.5492 46.5871 54.5123 46.33 54.476 46.0581L54.4764 46.0581ZM43.3211 41.3226C42.2907 41.9895 41.4379 42.8965 40.8348 43.9659C40.2311 45.0722 39.9083 46.3101 39.896 47.5711V48.5841C34.5344 48.5329 28.9387 48.496 23.1963 48.4812V47.9598C23.2086 47.4394 23.1789 46.9191 23.1083 46.4033C23.028 45.8348 22.8801 45.2776 22.6678 44.7439C21.8242 42.5657 20.0382 40.8884 17.8128 40.1847C17.3939 40.0561 16.9646 39.9655 16.5293 39.9127C16.6367 38.7086 16.7344 37.3503 16.8224 35.8379L16.9984 32.3357L17.0716 30.4412H17.0721C17.0777 30.1831 17.0997 29.9255 17.1381 29.6699C17.178 29.4461 17.2342 29.2248 17.3069 29.0092C17.6307 28.1354 18.262 27.4097 19.0816 26.9683C19.5078 26.745 19.9738 26.6077 20.4533 26.5642C20.8201 26.5201 21.678 26.5642 22.3968 26.5642C25.3302 26.6082 28.4254 26.6231 31.4838 26.6231C34.5421 26.6231 37.6081 26.6231 40.5707 26.557C41.3043 26.557 42.1474 26.5129 42.5143 26.557H42.5148C42.9875 26.6077 43.4459 26.7496 43.8644 26.9754C44.6916 27.4236 45.326 28.1606 45.6462 29.0461L45.749 29.3765L45.815 29.714C45.8529 29.9721 45.8749 30.2318 45.881 30.4925L45.9542 32.387L46.123 35.882C46.2182 37.4973 46.321 38.9509 46.4381 40.2139C45.33 40.347 44.2654 40.726 43.3215 41.3227L43.3211 41.3226Z" fill="#2C314B"/>
<path d="M50.4714 15.58C50.5666 11.6224 50.6474 7.29052 50.6986 2.36361H50.6991C50.7047 1.86476 50.5123 1.38434 50.1645 1.02781C49.8166 0.671286 49.3413 0.467507 48.8435 0.461869H48.8067L41.4065 0.388117C40.8877 0.384531 40.3889 0.587346 40.0201 0.952527C39.6512 1.31771 39.443 1.81501 39.4409 2.33435V6.15976L32.7007 0.807121C32.3487 0.522863 31.9098 0.367676 31.4575 0.367676C31.0053 0.367676 30.5663 0.522863 30.2143 0.807121C17.7903 10.9763 6.18045 20.8008 0.144146 26.4322C-0.112668 26.6745 -0.0170094 27.2251 0.356969 27.6435C0.730947 28.062 1.14892 28.1797 1.40573 27.9959C7.91876 23.4141 19.3745 14.5592 31.4537 4.94063L40.1446 11.9599C40.541 12.2769 41.0419 12.4321 41.5479 12.3942C42.0533 12.3568 42.526 12.1289 42.8713 11.757C43.2161 11.3852 43.408 10.8961 43.4085 10.3885V4.33817H46.9436C47.0024 8.74389 47.0755 12.7377 47.1707 16.3726V16.4606C47.1845 16.9308 47.4081 17.3697 47.7795 17.6576C53.647 22.2538 58.2599 25.7345 61.5822 28.0398C61.861 28.238 62.367 28.0398 62.6969 27.5845C63.0269 27.1291 63.0418 26.7256 62.8218 26.5125C59.9563 23.8103 55.8396 20.1663 50.4709 15.5797L50.4714 15.58Z" fill="#2C314B"/>
<path d="M79.135 56V35.77H82.88V56H79.135ZM79.135 32.76V28.84H82.88V32.76H79.135ZM88.113 56V35.77H91.858V37.765C92.5347 37.135 93.2814 36.5983 94.098 36.155C94.9147 35.7117 95.813 35.49 96.793 35.49C97.6097 35.49 98.228 35.7 98.648 36.12C99.0914 36.54 99.3947 37.065 99.558 37.695C99.7447 38.325 99.838 38.9667 99.838 39.62V56H96.093V40.705C96.093 39.9817 95.988 39.4217 95.778 39.025C95.568 38.6283 95.1364 38.43 94.483 38.43C94.063 38.43 93.6197 38.5583 93.153 38.815C92.7097 39.0483 92.278 39.34 91.858 39.69V56H88.113ZM110.109 56.28C109.059 56.28 108.207 56.0817 107.554 55.685C106.924 55.2883 106.457 54.7283 106.154 54.005C105.874 53.2817 105.734 52.43 105.734 51.45V38.255H103.599V35.77H105.734V29.855H109.479V35.77H112.734V38.255H109.479V51.205C109.479 51.9983 109.607 52.57 109.864 52.92C110.121 53.2467 110.611 53.41 111.334 53.41C111.521 53.41 111.731 53.3983 111.964 53.375C112.221 53.3517 112.466 53.3283 112.699 53.305V56.07C112.232 56.14 111.801 56.1867 111.404 56.21C111.007 56.2567 110.576 56.28 110.109 56.28ZM122.311 56.28C120.724 56.28 119.499 55.9767 118.636 55.37C117.772 54.74 117.166 53.83 116.816 52.64C116.489 51.4267 116.326 49.945 116.326 48.195V43.575C116.326 41.7783 116.501 40.285 116.851 39.095C117.201 37.905 117.807 37.0067 118.671 36.4C119.557 35.7933 120.771 35.49 122.311 35.49C124.014 35.49 125.262 35.84 126.056 36.54C126.872 37.24 127.409 38.255 127.666 39.585C127.922 40.8917 128.051 42.4667 128.051 44.31V45.955H120.071V50.015C120.071 50.8317 120.141 51.4967 120.281 52.01C120.444 52.5233 120.689 52.9083 121.016 53.165C121.366 53.3983 121.809 53.515 122.346 53.515C122.906 53.515 123.326 53.3867 123.606 53.13C123.909 52.85 124.107 52.465 124.201 51.975C124.317 51.4617 124.376 50.8667 124.376 50.19V48.965H128.016V49.735C128.016 51.765 127.584 53.3633 126.721 54.53C125.857 55.6967 124.387 56.28 122.311 56.28ZM120.071 43.925H124.376V42.105C124.376 41.265 124.329 40.565 124.236 40.005C124.142 39.4217 123.944 38.99 123.641 38.71C123.361 38.4067 122.906 38.255 122.276 38.255C121.669 38.255 121.202 38.395 120.876 38.675C120.572 38.955 120.362 39.4333 120.246 40.11C120.129 40.7633 120.071 41.6733 120.071 42.84V43.925ZM132.772 56V35.77H136.517V38.64C137.264 37.4033 138.01 36.575 138.757 36.155C139.504 35.735 140.25 35.525 140.997 35.525C141.09 35.525 141.172 35.525 141.242 35.525C141.335 35.525 141.452 35.5367 141.592 35.56V39.69C141.312 39.5733 140.985 39.48 140.612 39.41C140.262 39.3167 139.9 39.27 139.527 39.27C138.944 39.27 138.407 39.41 137.917 39.69C137.45 39.9467 136.984 40.46 136.517 41.23V56H132.772ZM145.382 56V35.77H149.127V56H145.382ZM145.382 32.76V28.84H149.127V32.76H145.382ZM159.925 56.28C158.432 56.28 157.253 55.9767 156.39 55.37C155.527 54.7633 154.908 53.9 154.535 52.78C154.185 51.66 154.01 50.3417 154.01 48.825V42.945C154.01 41.4283 154.185 40.11 154.535 38.99C154.908 37.87 155.527 37.0067 156.39 36.4C157.253 35.7933 158.432 35.49 159.925 35.49C161.418 35.49 162.585 35.7933 163.425 36.4C164.288 37.0067 164.895 37.87 165.245 38.99C165.618 40.11 165.805 41.4283 165.805 42.945V48.825C165.805 50.3417 165.618 51.66 165.245 52.78C164.895 53.9 164.288 54.7633 163.425 55.37C162.585 55.9767 161.418 56.28 159.925 56.28ZM159.925 53.515C160.648 53.515 161.15 53.305 161.43 52.885C161.733 52.465 161.908 51.9167 161.955 51.24C162.025 50.54 162.06 49.8167 162.06 49.07V42.735C162.06 41.965 162.025 41.2417 161.955 40.565C161.908 39.8883 161.733 39.34 161.43 38.92C161.15 38.4767 160.648 38.255 159.925 38.255C159.202 38.255 158.688 38.4767 158.385 38.92C158.082 39.34 157.895 39.8883 157.825 40.565C157.778 41.2417 157.755 41.965 157.755 42.735V49.07C157.755 49.8167 157.778 50.54 157.825 51.24C157.895 51.9167 158.082 52.465 158.385 52.885C158.688 53.305 159.202 53.515 159.925 53.515ZM170.558 56V35.77H174.303V38.64C175.05 37.4033 175.797 36.575 176.543 36.155C177.29 35.735 178.037 35.525 178.783 35.525C178.877 35.525 178.958 35.525 179.028 35.525C179.122 35.525 179.238 35.5367 179.378 35.56V39.69C179.098 39.5733 178.772 39.48 178.398 39.41C178.048 39.3167 177.687 39.27 177.313 39.27C176.73 39.27 176.193 39.41 175.703 39.69C175.237 39.9467 174.77 40.46 174.303 41.23V56H170.558Z" fill="#555555"/>
</svg>
