<svg width="85" height="36" viewBox="0 0 85 36" fill="none" xmlns="http://www.w3.org/2000/svg">
<path d="M27.363 23.5136C27.3339 23.3906 27.3086 23.2638 27.2687 23.1514V23.1516C27.1137 22.6469 26.8502 22.1822 26.4965 21.7898C25.9671 21.2046 25.2584 20.811 24.4814 20.6711C24.5393 20.0373 24.5936 19.3058 24.6409 18.4982L24.7279 16.7709L24.7641 15.8366C24.7754 15.6436 24.7754 15.4501 24.7641 15.2571L24.7206 14.9383L24.648 14.6233V14.6236C24.4579 13.9537 24.0784 13.3528 23.555 12.893C23.0316 12.433 22.3869 12.1337 21.6977 12.0306C21.2941 11.9892 20.8889 11.971 20.4833 11.9763C19.0335 11.9546 17.5039 11.9437 15.9924 11.9437C14.4809 11.9437 12.9657 11.9437 11.5015 11.9728H11.5013C11.096 11.968 10.6905 11.9862 10.2871 12.0271C9.5964 12.1279 8.9494 12.4257 8.42402 12.8852C7.89888 13.3444 7.51733 13.9456 7.32568 14.6163C7.2693 14.8249 7.23036 15.0384 7.20988 15.2536C7.198 15.4466 7.198 15.6401 7.20988 15.8331L7.24604 16.7674L7.33301 18.4947C7.3765 19.2479 7.42732 19.9431 7.47789 20.5299C6.95933 20.6193 6.46551 20.8168 6.02816 21.1091C5.0851 21.7358 4.47092 22.7502 4.35364 23.8758V24.2742V28.2213C4.35364 28.3372 4.35364 28.4819 4.37538 28.6123C4.39713 28.7426 4.41533 28.8768 4.43707 29.0071C4.66437 30.0456 5.32349 30.9385 6.2494 31.4624C6.69489 31.7162 7.1887 31.8741 7.69913 31.9259C7.82605 31.9259 7.94918 31.9259 8.0617 31.9441H8.93854L11.0843 31.9115C10.1094 32.8855 9.14152 34.4463 9.08721 35.3264L9.08747 35.3262C9.21136 35.4555 9.34991 35.5697 9.5006 35.6667C9.62044 35.7644 9.75192 35.847 9.89199 35.9129C10.9794 35.4856 12.7083 33.1788 12.9475 31.8825C15.1585 31.8426 17.2065 31.7921 19.0223 31.734C19.1384 32.9907 20.9507 35.4639 22.089 35.9094C22.2495 35.8306 22.4005 35.7333 22.5383 35.6197C22.671 35.5358 22.7929 35.4363 22.9009 35.3226C22.843 34.3594 21.7047 32.614 20.6536 31.6723C21.7047 31.6324 22.6543 31.5927 23.4952 31.5455V31.5458C23.7377 31.4915 23.8962 31.2586 23.8578 31.0133C23.8677 30.7907 23.7139 30.5942 23.4952 30.5498C20.1353 30.3686 14.9482 30.2383 8.94227 30.1549H7.90918V30.1552C7.65255 30.1219 7.40578 30.0355 7.18431 29.9016C6.73047 29.6288 6.41239 29.1781 6.30721 28.6596L6.28193 28.4641V24.0713C6.34261 23.5343 6.64045 23.0526 7.09379 22.7579C7.54712 22.4631 8.10869 22.386 8.62468 22.5477C9.14068 22.7094 9.55764 23.0928 9.7614 23.5935C9.81121 23.7167 9.84509 23.8456 9.86278 23.9772C9.88503 24.1343 9.89338 24.2932 9.88832 24.4515V25.6974C9.88706 25.9659 9.99552 26.2235 10.1882 26.4104C10.3811 26.5976 10.6418 26.6984 10.9105 26.6896C14.43 26.6896 17.8478 26.6605 21.0595 26.6244H21.0813H21.081C21.328 26.6244 21.5647 26.5249 21.7374 26.3483C21.9101 26.172 22.0042 25.9333 21.9981 25.6865V24.2381C21.9913 23.7178 22.1945 23.2169 22.5622 22.8481C22.9295 22.4796 23.4301 22.2744 23.9507 22.279C24.4716 22.2835 24.9684 22.4977 25.3292 22.8729C25.5337 23.0785 25.6918 23.3255 25.7931 23.597L25.8548 23.8034L25.8948 24.0133V24.5274L25.9527 26.7616L25.9853 27.8082V28.2934V28.2939C25.9856 28.4152 25.9772 28.5361 25.96 28.6561C25.8789 29.1328 25.6462 29.5708 25.2966 29.9052C24.9793 30.2083 24.5818 30.4145 24.1513 30.4993C23.9406 30.5925 23.8178 30.8146 23.8504 31.0424C23.8494 31.1551 23.8944 31.2632 23.9753 31.342C24.0559 31.4205 24.1654 31.4627 24.2782 31.4589C24.9179 31.4031 25.5269 31.1599 26.0288 30.76C26.6151 30.3025 27.0341 29.6649 27.2215 28.9455C27.2655 28.749 27.2933 28.5492 27.3046 28.3481C27.3046 28.1453 27.3046 27.9859 27.3264 27.823L27.359 26.7764L27.4169 24.5422V23.8867C27.399 23.7745 27.3807 23.6477 27.3628 23.5136L27.363 23.5136ZM21.8499 21.1781C21.3407 21.507 20.9192 21.9543 20.6211 22.4817C20.3228 23.0273 20.1632 23.6379 20.1572 24.2598V24.7594C17.5074 24.7342 14.742 24.716 11.904 24.7086V24.4515C11.91 24.1949 11.8954 23.9382 11.8605 23.6839C11.8208 23.4035 11.7477 23.1286 11.6428 22.8654C11.2259 21.7912 10.3432 20.9639 9.24341 20.6168C9.03634 20.5534 8.82421 20.5087 8.60905 20.4827C8.66214 19.8889 8.71043 19.219 8.75392 18.473L8.8409 16.7458L8.87706 15.8114H8.87731C8.88009 15.6841 8.89096 15.557 8.90993 15.431C8.92965 15.3206 8.95746 15.2115 8.99337 15.1051C9.15341 14.6742 9.46541 14.3163 9.87047 14.0986C10.0811 13.9884 10.3114 13.9207 10.5483 13.8993C10.7296 13.8775 11.1536 13.8993 11.5089 13.8993C12.9586 13.921 14.4883 13.9283 15.9997 13.9283C17.5112 13.9283 19.0265 13.9283 20.4906 13.8957C20.8532 13.8957 21.2699 13.874 21.4512 13.8957H21.4514C21.685 13.9207 21.9116 13.9907 22.1184 14.1021C22.5272 14.3231 22.8407 14.6866 22.999 15.1234L23.0498 15.2863L23.0824 15.4528C23.1011 15.5801 23.112 15.7081 23.1151 15.8367L23.1512 16.7711L23.2346 18.4948C23.2817 19.2914 23.3325 20.0083 23.3904 20.6312C22.8427 20.6969 22.3166 20.8838 21.8501 21.1781L21.8499 21.1781Z" fill="#1B1A1A"/>
<path d="M25.3836 8.48208C25.4307 6.53023 25.4706 4.39375 25.4959 1.96382H25.4961C25.4989 1.71779 25.4039 1.48085 25.2319 1.30501C25.06 1.12917 24.8251 1.02867 24.5791 1.02589H24.5609L20.9036 0.989512C20.6473 0.987744 20.4007 1.08777 20.2184 1.26788C20.0361 1.44798 19.9332 1.69325 19.9322 1.94939V3.83606L16.6011 1.19616C16.4272 1.05597 16.2102 0.979431 15.9867 0.979431C15.7632 0.979431 15.5463 1.05597 15.3723 1.19616C9.23224 6.21154 3.49449 11.057 0.511272 13.8344C0.384351 13.9538 0.431627 14.2254 0.616451 14.4318C0.801276 14.6381 1.00784 14.6962 1.13476 14.6055C4.35358 12.3458 10.0152 7.97864 15.9848 3.23479L20.28 6.69665C20.4759 6.85301 20.7234 6.92955 20.9735 6.91085C21.2233 6.89241 21.4569 6.78001 21.6276 6.59662C21.798 6.41323 21.8928 6.172 21.893 5.92164V2.93766H23.6401C23.6692 5.11054 23.7053 7.08025 23.7524 8.87297V8.91641C23.7592 9.1483 23.8697 9.36478 24.0532 9.50674C26.953 11.7736 29.2328 13.4903 30.8747 14.6272C31.0125 14.725 31.2626 14.6272 31.4256 14.4026C31.5887 14.1781 31.596 13.979 31.4873 13.8739C30.0712 12.5413 28.0367 10.744 25.3834 8.48195L25.3836 8.48208Z" fill="#1B1A1A"/>
<path d="M37.976 25.9701V16.7221H39.688V25.9701H37.976ZM37.976 15.3461V13.5541H39.688V15.3461H37.976ZM42.0959 25.9701V16.7221H43.8079V17.6341C44.1172 17.3461 44.4586 17.1007 44.8319 16.8981C45.2052 16.6954 45.6159 16.5941 46.0639 16.5941C46.4372 16.5941 46.7199 16.6901 46.9119 16.8821C47.1146 17.0741 47.2532 17.3141 47.3279 17.6021C47.4132 17.8901 47.4559 18.1834 47.4559 18.4821V25.9701H45.7439V18.9781C45.7439 18.6474 45.6959 18.3914 45.5999 18.2101C45.5039 18.0287 45.3066 17.9381 45.0079 17.9381C44.8159 17.9381 44.6132 17.9967 44.3999 18.1141C44.1972 18.2207 43.9999 18.3541 43.8079 18.5141V25.9701H42.0959ZM52.1512 26.0981C51.6712 26.0981 51.2818 26.0074 50.9832 25.8261C50.6952 25.6447 50.4818 25.3887 50.3432 25.0581C50.2152 24.7274 50.1512 24.3381 50.1512 23.8901V17.8581H49.1752V16.7221H50.1512V14.0181H51.8632V16.7221H53.3512V17.8581H51.8632V23.7781C51.8632 24.1407 51.9218 24.4021 52.0392 24.5621C52.1565 24.7114 52.3805 24.7861 52.7112 24.7861C52.7965 24.7861 52.8925 24.7807 52.9992 24.7701C53.1165 24.7594 53.2285 24.7487 53.3352 24.7381V26.0021C53.1218 26.0341 52.9245 26.0554 52.7432 26.0661C52.5618 26.0874 52.3645 26.0981 52.1512 26.0981ZM57.729 26.0981C57.0037 26.0981 56.4437 25.9594 56.049 25.6821C55.6544 25.3941 55.377 24.9781 55.217 24.4341C55.0677 23.8794 54.993 23.2021 54.993 22.4021V20.2901C54.993 19.4687 55.073 18.7861 55.233 18.2421C55.393 17.6981 55.6704 17.2874 56.065 17.0101C56.4704 16.7327 57.025 16.5941 57.729 16.5941C58.5077 16.5941 59.0784 16.7541 59.441 17.0741C59.8144 17.3941 60.0597 17.8581 60.177 18.4661C60.2944 19.0634 60.353 19.7834 60.353 20.6261V21.3781H56.705V23.2341C56.705 23.6074 56.737 23.9114 56.801 24.1461C56.8757 24.3807 56.9877 24.5567 57.137 24.6741C57.297 24.7807 57.4997 24.8341 57.745 24.8341C58.001 24.8341 58.193 24.7754 58.321 24.6581C58.4597 24.5301 58.5504 24.3541 58.593 24.1301C58.6464 23.8954 58.673 23.6234 58.673 23.3141V22.7541H60.337V23.1061C60.337 24.0341 60.1397 24.7647 59.745 25.2981C59.3504 25.8314 58.6784 26.0981 57.729 26.0981ZM56.705 20.4501H58.673V19.6181C58.673 19.2341 58.6517 18.9141 58.609 18.6581C58.5664 18.3914 58.4757 18.1941 58.337 18.0661C58.209 17.9274 58.001 17.8581 57.713 17.8581C57.4357 17.8581 57.2224 17.9221 57.073 18.0501C56.9344 18.1781 56.8384 18.3967 56.785 18.7061C56.7317 19.0047 56.705 19.4207 56.705 19.9541V20.4501ZM62.5114 25.9701V16.7221H64.2234V18.0341C64.5647 17.4687 64.9061 17.0901 65.2474 16.8981C65.5887 16.7061 65.9301 16.6101 66.2714 16.6101C66.3141 16.6101 66.3514 16.6101 66.3834 16.6101C66.4261 16.6101 66.4794 16.6154 66.5434 16.6261V18.5141C66.4154 18.4607 66.2661 18.4181 66.0954 18.3861C65.9354 18.3434 65.7701 18.3221 65.5994 18.3221C65.3327 18.3221 65.0874 18.3861 64.8634 18.5141C64.6501 18.6314 64.4367 18.8661 64.2234 19.2181V25.9701H62.5114ZM68.276 25.9701V16.7221H69.988V25.9701H68.276ZM68.276 15.3461V13.5541H69.988V15.3461H68.276ZM74.9399 26.0981C74.2572 26.0981 73.7186 25.9594 73.3239 25.6821C72.9292 25.4047 72.6466 25.0101 72.4759 24.4981C72.3159 23.9861 72.2359 23.3834 72.2359 22.6901V20.0021C72.2359 19.3087 72.3159 18.7061 72.4759 18.1941C72.6466 17.6821 72.9292 17.2874 73.3239 17.0101C73.7186 16.7327 74.2572 16.5941 74.9399 16.5941C75.6226 16.5941 76.1559 16.7327 76.5399 17.0101C76.9346 17.2874 77.2119 17.6821 77.3719 18.1941C77.5426 18.7061 77.6279 19.3087 77.6279 20.0021V22.6901C77.6279 23.3834 77.5426 23.9861 77.3719 24.4981C77.2119 25.0101 76.9346 25.4047 76.5399 25.6821C76.1559 25.9594 75.6226 26.0981 74.9399 26.0981ZM74.9399 24.8341C75.2706 24.8341 75.4999 24.7381 75.6279 24.5461C75.7666 24.3541 75.8466 24.1034 75.8679 23.7941C75.8999 23.4741 75.9159 23.1434 75.9159 22.8021V19.9061C75.9159 19.5541 75.8999 19.2234 75.8679 18.9141C75.8466 18.6047 75.7666 18.3541 75.6279 18.1621C75.4999 17.9594 75.2706 17.8581 74.9399 17.8581C74.6092 17.8581 74.3746 17.9594 74.2359 18.1621C74.0972 18.3541 74.0119 18.6047 73.9799 18.9141C73.9586 19.2234 73.9479 19.5541 73.9479 19.9061V22.8021C73.9479 23.1434 73.9586 23.4741 73.9799 23.7941C74.0119 24.1034 74.0972 24.3541 74.2359 24.5461C74.3746 24.7381 74.6092 24.8341 74.9399 24.8341ZM79.8008 25.9701V16.7221H81.5128V18.0341C81.8541 17.4687 82.1954 17.0901 82.5368 16.8981C82.8781 16.7061 83.2194 16.6101 83.5608 16.6101C83.6034 16.6101 83.6408 16.6101 83.6728 16.6101C83.7154 16.6101 83.7688 16.6154 83.8328 16.6261V18.5141C83.7048 18.4607 83.5554 18.4181 83.3848 18.3861C83.2248 18.3434 83.0594 18.3221 82.8888 18.3221C82.6221 18.3221 82.3768 18.3861 82.1528 18.5141C81.9394 18.6314 81.7261 18.8661 81.5128 19.2181V25.9701H79.8008Z" fill="#555555"/>
</svg>
